PathFileType	4	(X/Y/Z)	c:/Users/goper/Files/vsCode/490R/osim_files/C17/C17_SSWS_01.trc
DataRate	CameraRate	NumFrames	NumMarkers	Units                	OrigDataRate	OrigDataStartFrame	OrigNumFrames
250.00	250.00	7	36	mm	250.0	556	2223
                Frame#	Time	LPSIS			LASIS			LTH1			LTH2			LTH3			LTH4			LLFE			LMFE			LSH1			LSH2			LSH3			LSH4			LLMAL			LMMAL			LCAL			LMTP5			LTOE			LMTP1			RPSIS			RASIS			RTH1			RTH2			RTH3			RTH4			RLFE			RMFE			RSH1			RSH2			RSH3			RSH4			RLMAL			RMMAL			RCAL			RMTP1			RTOE			RMTP5		
		X1	Y1	Z1	X2	Y2	Z2	X3	Y3	Z3	X4	Y4	Z4	X5	Y5	Z5	X6	Y6	Z6	X7	Y7	Z7	X8	Y8	Z8	X9	Y9	Z9	X10	Y10	Z10	X11	Y11	Z11	X12	Y12	Z12	X13	Y13	Z13	X14	Y14	Z14	X15	Y15	Z15	X16	Y16	Z16	X17	Y17	Z17	X18	Y18	Z18	X19	Y19	Z19	X20	Y20	Z20	X21	Y21	Z21	X22	Y22	Z22	X23	Y23	Z23	X24	Y24	Z24	X25	Y25	Z25	X26	Y26	Z26	X27	Y27	Z27	X28	Y28	Z28	X29	Y29	Z29	X30	Y30	Z30	X31	Y31	Z31	X32	Y32	Z32	X33	Y33	Z33	X34	Y34	Z34	X35	Y35	Z35	X36	Y36	Z36

556	2.22000	1542.33765	1093.75635	195.33534	1349.82642	1039.11414	296.41577	1433.90173	710.31012	318.12900	1419.62134	664.63794	310.93738	1375.40039	722.86432	323.52399	1370.70239	677.11401	314.62909	1413.02039	501.27286	272.27911	1409.45825	509.02628	149.86244	1423.58508	266.49448	259.23566	1432.93726	223.03502	250.10765	1486.00183	272.17984	255.40974	1485.93604	229.88902	249.33949	1475.11792	89.01523	221.31142	1461.41638	101.28109	134.18503	1551.61584	52.60009	173.29190	1360.02112	37.56689	243.05484	1301.39246	56.43387	177.02335	1318.69373	37.99036	127.03812	1535.32788	1087.23108	122.12631	1356.43994	1053.00793	29.16234	0.00000	0.00000	0.00000	0.00000	0.00000	0.00000	1283.52197	772.42346	-22.72818	1274.81653	726.00848	-22.92603	1256.55920	508.58942	-13.18150	0.00000	0.00000	0.00000	1402.68433	355.03262	-20.49023	1414.54614	312.14218	-9.87829	0.00000	0.00000	0.00000	0.00000	0.00000	0.00000	1481.96692	151.27148	20.21960	1438.95728	152.60921	106.54583	1552.96826	134.47481	76.27456	0.00000	0.00000	0.00000	1317.42102	71.37241	41.74336	1382.66992	58.02911	-18.54954
557	2.22400	1537.26147	1093.97595	195.29549	1344.93604	1039.18616	296.90067	1432.04626	711.12463	318.47733	1417.40222	664.92719	310.92068	1372.95557	722.95197	323.61783	1368.71533	677.09143	314.73447	1412.90942	501.60593	272.46240	1409.21301	509.28940	150.01765	1423.55591	266.55188	259.33984	1433.04199	223.51515	249.95312	1486.00049	272.28293	255.41092	1486.03271	230.12100	249.36432	1475.06519	89.11966	221.24506	1461.38501	101.42162	134.18547	1549.35388	49.90384	171.63443	1360.02747	37.60389	243.06866	1301.38611	56.42693	176.99252	1318.69189	38.00683	127.02917	1530.14929	1087.47766	122.04797	1351.21265	1053.35962	29.74327	0.00000	0.00000	0.00000	0.00000	0.00000	0.00000	1276.63464	773.83252	-22.91481	1268.03235	727.07550	-22.54352	1248.16113	509.70532	-12.38989	0.00000	0.00000	0.00000	1390.65784	352.73932	-19.91287	1401.64697	309.65973	-9.28704	0.00000	0.00000	0.00000	0.00000	0.00000	0.00000	1465.22009	147.96509	21.40751	1422.74878	149.74074	107.14137	1535.78589	128.69035	76.52968	0.00000	0.00000	0.00000	0.00000	0.00000	0.00000	1365.38232	56.75353	-18.59953
558	2.22800	1532.15845	1094.13037	195.23152	1339.98755	1039.19556	297.31976	1429.27930	711.56561	318.45877	1415.12598	665.15912	310.88583	1370.84155	723.22015	323.87393	0.00000	0.00000	0.00000	1412.74683	501.92062	272.61600	1411.04663	511.18857	148.99287	1423.72241	266.77307	259.55673	1435.26685	224.91994	250.86760	1486.12427	272.50589	255.46257	1486.13818	230.37585	249.38098	1475.00623	89.23717	221.15742	1461.36633	101.55280	134.18445	1552.55090	52.92840	172.95461	1360.02551	37.61983	243.09525	1301.37244	56.42249	176.98471	1318.39246	37.92028	127.11409	1524.94678	1087.66235	122.02239	1345.93457	1053.58081	30.35751	0.00000	0.00000	0.00000	0.00000	0.00000	0.00000	1270.22095	774.81873	-22.61753	1261.31287	727.89221	-22.11027	1239.88599	510.82941	-11.59938	0.00000	0.00000	0.00000	1378.75977	350.52859	-19.29502	1388.67310	307.20480	-8.68119	0.00000	0.00000	0.00000	0.00000	0.00000	0.00000	1447.74536	142.96558	21.33488	1405.17517	146.73956	107.90371	1519.67566	121.81723	76.54474	0.00000	0.00000	0.00000	0.00000	0.00000	0.00000	1345.24048	54.24296	-16.62359
559	2.23200	1527.06934	1094.20264	195.18384	1335.07056	1039.10107	297.84818	0.00000	0.00000	0.00000	1412.78833	665.29706	310.84277	1368.29712	723.13470	323.91074	1366.07666	675.84247	315.44629	1412.44763	502.25085	272.71393	1410.60901	511.42331	149.18016	1423.45166	266.44998	259.38116	1435.15161	222.87227	250.32387	1486.12488	272.64816	255.44690	1486.12329	230.35240	249.47374	1474.98401	89.36758	221.06758	1461.32788	101.64904	134.16229	1552.52576	53.13485	172.93744	1360.18054	37.37394	242.92223	1301.40222	56.56186	176.47826	0.00000	0.00000	0.00000	1519.68762	1087.78931	122.01361	1340.75623	1053.82410	30.82350	0.00000	0.00000	0.00000	0.00000	0.00000	0.00000	1263.68286	775.55591	-22.18071	1254.61169	728.76740	-21.74421	1231.04004	510.81396	-10.20914	0.00000	0.00000	0.00000	1366.45825	348.08838	-18.33940	1375.71973	304.75452	-8.03233	0.00000	0.00000	0.00000	0.00000	0.00000	0.00000	1430.08984	138.17795	22.24344	1388.71826	144.12323	108.63739	1501.09351	116.91409	76.73453	1276.31311	47.49337	92.27509	1260.77832	71.86184	46.05125	1326.43384	53.17524	-15.98336
560	2.23600	1521.96851	1094.21912	195.14085	1330.08887	1038.88538	298.26318	0.00000	0.00000	0.00000	0.00000	0.00000	0.00000	1366.00305	723.18719	323.97885	1365.87292	677.34540	316.37033	1412.22876	502.55746	272.82468	1410.16528	511.68323	149.30934	1427.60645	270.26285	261.18369	1437.12366	221.90948	249.76608	1486.12866	272.78738	255.42000	1486.17151	230.54211	249.44872	1474.83655	89.44037	220.86827	1462.17310	102.08636	134.29863	1552.49377	53.31227	172.92348	1359.66931	37.26253	242.86024	1301.38257	56.49234	176.56972	0.00000	0.00000	0.00000	1514.47791	1087.82434	121.98638	1335.49316	1053.92798	31.40769	0.00000	0.00000	0.00000	0.00000	0.00000	0.00000	1257.22791	776.26636	-21.87174	1245.69629	730.80566	-22.62833	1222.98523	511.73724	-9.50106	1232.65564	524.30103	115.99713	1354.47034	345.81735	-17.75438	1362.64380	302.21295	-7.38614	0.00000	0.00000	0.00000	0.00000	0.00000	0.00000	1412.31750	134.12862	23.16196	1371.99609	141.40962	109.52514	1483.38538	111.45103	77.17235	0.00000	0.00000	0.00000	1242.04163	72.33573	46.91961	1306.48059	50.88435	-13.79961
561	2.24000	1516.88574	1094.16980	195.10950	0.00000	0.00000	0.00000	0.00000	0.00000	0.00000	0.00000	0.00000	0.00000	1362.59021	722.35040	323.86340	1364.02783	677.77039	316.53738	1411.92737	502.79718	272.89764	1409.71985	511.94089	149.38623	1423.58838	266.74365	259.65582	1433.15210	223.44052	250.86220	1486.13147	272.99667	255.36139	1486.17151	230.75177	249.36429	1474.77417	89.52613	220.74490	1461.58704	101.78460	134.04590	1552.44385	53.44960	172.90654	1359.65967	37.26336	242.87982	1301.29065	56.46020	176.67241	0.00000	0.00000	0.00000	1509.26184	1087.79321	121.94289	1330.31006	1054.08752	31.82594	0.00000	0.00000	0.00000	0.00000	0.00000	0.00000	1251.09290	776.53918	-20.95934	1239.60754	731.20856	-21.68146	1215.13464	512.72198	-8.83315	1225.20679	524.65356	116.66116	1342.65759	343.66318	-17.32411	1349.59265	299.74335	-6.69056	0.00000	0.00000	0.00000	0.00000	0.00000	0.00000	1395.28906	130.64658	23.65984	1355.14807	138.89986	110.21097	1465.43726	106.54615	78.05595	1237.08142	48.47332	94.96700	1223.11572	72.70393	48.75473	1287.35510	50.47746	-13.19746
562	2.24400	1511.80359	1094.09314	195.04111	0.00000	0.00000	0.00000	0.00000	0.00000	0.00000	0.00000	0.00000	0.00000	1360.19177	722.21204	323.91013	1362.13928	678.03027	316.63693	1411.56665	502.97455	272.91751	1409.13684	512.10376	149.48318	1423.58118	266.90228	259.73624	1433.68274	223.89835	250.29332	1488.46094	274.53491	256.30148	1486.15063	230.99107	249.23759	1474.78967	89.66420	220.64189	1461.56226	101.86407	134.00095	1551.34570	53.51691	173.10616	1359.63342	37.24616	242.86702	1301.19604	56.33411	176.64532	0.00000	0.00000	0.00000	1504.06787	1087.72424	121.89367	1325.05469	1054.12048	32.30558	0.00000	0.00000	0.00000	0.00000	0.00000	0.00000	1244.38245	777.49677	-21.04934	1233.43640	731.59210	-21.33015	1207.34619	513.52240	-8.13694	0.00000	0.00000	0.00000	1330.62854	341.37357	-16.62815	1336.45496	297.25125	-5.98803	0.00000	0.00000	0.00000	0.00000	0.00000	0.00000	1377.38025	126.89197	24.71575	1336.66211	137.04623	110.49633	1447.65186	101.04144	78.25568	0.00000	0.00000	0.00000	1204.40857	73.37107	50.74406	1267.14331	48.72371	-11.20307
